<?xml version="1.0" standalone="no"?>
<!DOCTYPE svg PUBLIC "-//W3C//DTD SVG 20010904//EN"
 "http://www.w3.org/TR/2001/REC-SVG-20010904/DTD/svg10.dtd">
<svg version="1.0" xmlns="http://www.w3.org/2000/svg"
 width="956.000000pt" height="956.000000pt" viewBox="0 0 956.000000 956.000000"
 preserveAspectRatio="xMidYMid meet">

<g transform="translate(0.000000,956.000000) scale(0.100000,-0.100000)"
fill="#ffffff" stroke="none">
<path d="M4638 9030 c-132 -24 -269 -91 -385 -189 -109 -94 -153 -156 -234
-336 -36 -81 -50 -253 -29 -378 12 -75 66 -205 118 -287 l41 -65 -72 -65 c-40
-36 -122 -112 -182 -170 -61 -58 -162 -152 -225 -210 -150 -138 -252 -233
-505 -476 -116 -110 -240 -227 -276 -260 -90 -81 -293 -271 -543 -510 -116
-110 -247 -233 -291 -274 -44 -40 -118 -110 -165 -154 -137 -130 -201 -188
-269 -246 -86 -74 -283 -247 -349 -307 l-52 -48 -3 -370 c-2 -426 -8 -398 96
-477 150 -113 606 -398 636 -398 18 0 102 37 111 48 6 8 32 25 205 135 249
158 402 265 420 295 11 19 17 580 8 705 l-6 77 -91 72 c-50 40 -134 106 -186
147 -182 143 -210 166 -210 172 0 3 21 21 47 40 26 18 104 88 173 154 69 66
182 172 250 235 69 63 148 138 176 167 l51 54 89 -89 c125 -123 510 -490 562
-533 40 -34 54 -59 32 -59 -22 0 -425 -323 -461 -368 -19 -25 -20 -40 -17
-398 l3 -373 30 -32 c29 -30 203 -148 465 -316 190 -121 197 -124 242 -126 38
-2 57 7 151 68 59 39 122 79 140 89 81 49 375 249 404 275 17 16 36 38 42 49
12 23 16 675 5 731 -4 18 -20 45 -36 61 -33 33 -248 208 -358 292 -41 32 -89
70 -105 85 -96 88 -205 191 -320 303 -155 150 -452 430 -550 517 -66 60 -69
64 -51 78 26 20 192 172 306 280 178 168 725 681 795 745 39 35 89 84 112 109
l42 45 38 -18 c88 -42 158 -58 284 -63 140 -6 231 8 347 54 l64 25 97 -93
c169 -164 568 -536 705 -658 39 -35 118 -109 176 -165 58 -56 149 -143 203
-192 l99 -91 -144 -133 c-317 -296 -408 -381 -551 -518 -135 -129 -324 -296
-592 -522 -55 -47 -108 -94 -117 -105 -16 -18 -17 -54 -18 -376 0 -227 4 -367
11 -385 13 -38 76 -88 294 -235 269 -182 398 -259 432 -259 33 0 243 122 403
235 36 25 103 71 150 102 114 76 159 113 176 145 11 22 14 99 14 388 0 216 -4
369 -10 380 -11 20 -99 95 -315 264 -82 65 -150 121 -150 126 0 12 404 400
501 481 47 39 102 93 122 120 20 26 42 48 47 48 6 1 51 -40 100 -90 50 -50
126 -123 170 -162 44 -39 139 -125 210 -193 72 -67 151 -139 177 -160 26 -22
47 -42 47 -45 1 -3 -7 -10 -18 -15 -10 -5 -40 -28 -67 -51 -27 -23 -95 -77
-150 -120 -56 -43 -136 -106 -178 -141 l-76 -62 0 -379 c0 -439 -12 -392 122
-488 187 -132 450 -305 537 -353 90 -50 71 -57 426 171 238 153 332 222 362
268 23 34 23 36 23 402 l0 369 -42 42 c-24 24 -128 115 -233 203 -104 88 -230
198 -280 245 -49 47 -117 110 -150 140 -33 30 -100 93 -150 140 -109 103 -210
197 -290 269 -33 29 -105 97 -160 150 -55 53 -156 148 -225 211 -69 63 -170
158 -225 211 -55 53 -135 127 -177 165 -42 38 -141 129 -220 203 -79 74 -177
166 -218 204 -41 39 -129 122 -195 186 -66 64 -167 159 -225 211 -57 52 -116
106 -131 119 l-27 25 28 35 c40 51 96 165 115 236 9 33 19 106 22 161 11 200
-39 357 -170 529 -67 88 -159 163 -264 214 -144 71 -193 83 -338 87 -71 1
-151 -1 -177 -6z m210 -340 c237 -34 411 -249 387 -479 -14 -148 -78 -248
-210 -330 -128 -80 -294 -92 -423 -30 -58 29 -144 100 -186 155 -100 130 -99
355 0 497 52 73 158 148 249 175 81 24 98 25 183 12z m972 -3550 c213 -151
319 -238 326 -265 3 -12 2 -112 -3 -221 l-8 -197 -69 -53 c-87 -67 -285 -184
-310 -184 -34 0 -317 172 -369 224 l-27 27 2 216 3 217 148 111 c81 61 164
128 184 148 20 20 41 33 47 29 6 -3 40 -27 76 -52z m1841 44 c7 -9 76 -63 154
-121 77 -58 157 -121 178 -141 l37 -36 0 -212 0 -213 -42 -34 c-24 -18 -88
-63 -143 -98 -193 -125 -187 -123 -258 -88 -75 38 -287 173 -318 203 l-29 28
0 208 0 208 158 120 c86 66 175 136 197 156 46 41 48 41 66 20z m-5551 -109
c85 -64 176 -132 201 -151 l47 -34 -1 -208 c0 -176 -2 -210 -16 -225 -20 -23
-261 -187 -318 -216 -23 -11 -53 -21 -66 -21 -24 0 -218 111 -311 177 -88 63
-84 48 -82 292 l1 215 85 65 c47 35 128 99 180 142 52 43 102 78 110 78 8 1
85 -51 170 -114z m1803 72 c29 -24 106 -85 172 -134 66 -50 128 -100 138 -111
17 -18 19 -42 20 -227 l2 -207 -40 -34 c-22 -18 -64 -48 -93 -66 -29 -18 -93
-59 -142 -90 -53 -35 -99 -58 -116 -58 -30 0 -146 64 -274 151 -143 97 -130
67 -130 307 0 152 3 212 13 224 6 8 34 30 60 48 27 17 109 79 184 136 74 57
139 104 145 104 5 0 33 -20 61 -43z"/>
<path d="M807 2750 c-230 -42 -452 -188 -574 -377 -84 -130 -112 -199 -139
-348 -19 -102 -5 -325 25 -400 100 -249 263 -432 471 -529 163 -76 422 -95
608 -45 159 42 281 116 412 248 168 170 240 376 227 650 -6 122 -17 181 -51
271 -21 56 -27 66 -86 155 -105 158 -315 307 -500 354 -95 24 -312 36 -393 21z
m374 -356 c141 -68 241 -178 289 -320 16 -45 20 -83 20 -178 0 -155 -14 -213
-73 -302 -114 -173 -257 -254 -447 -254 -160 0 -263 42 -375 155 -116 116
-155 214 -155 390 0 58 6 126 15 159 35 135 156 286 271 341 97 46 139 55 260
52 107 -3 115 -5 195 -43z"/>
<path d="M4375 2736 c-38 -17 -60 -41 -80 -89 -40 -97 7 -198 114 -243 43 -18
83 -18 129 1 78 33 115 91 115 178 -1 47 -6 64 -28 93 -43 56 -80 74 -155 74
-36 -1 -78 -7 -95 -14z"/>
<path d="M4795 2721 c-3 -5 -4 -75 -3 -155 l2 -146 241 0 241 0 -3 -690 -2
-690 167 2 167 3 3 681 2 681 46 7 c26 3 140 6 255 6 l208 0 3 151 c2 83 1
153 -1 155 -9 9 -1320 4 -1326 -5z"/>
<path d="M3525 2571 c-2 -1 -1 -75 2 -162 l6 -159 -92 0 -92 0 4 -123 c2 -68
7 -129 11 -135 4 -7 22 -12 39 -11 18 2 53 2 79 1 l47 -2 -6 -267 c-5 -225 -3
-282 11 -355 21 -109 37 -148 84 -200 84 -93 172 -120 370 -116 l127 3 3 141
3 140 -91 -4 c-73 -4 -95 -1 -116 13 -52 34 -57 66 -62 367 l-4 277 137 3 138
3 -1 130 0 130 -136 3 -136 3 0 162 0 163 -161 0 c-88 -1 -162 -3 -164 -5z"/>
<path d="M7380 2280 c-243 -26 -449 -197 -530 -440 -19 -57 -25 -260 -10 -331
32 -151 122 -275 273 -380 197 -136 536 -135 738 2 86 58 216 214 187 224 -7
2 -42 11 -78 20 -36 9 -92 26 -124 36 l-59 20 -29 -36 c-17 -20 -53 -48 -82
-63 -47 -25 -60 -27 -171 -27 -131 0 -162 10 -245 77 -38 29 -111 152 -103
173 2 7 163 9 463 7 l460 -2 0 118 c0 194 -43 311 -155 427 -83 86 -224 158
-332 170 -115 12 -129 13 -203 5z m204 -291 c67 -31 121 -83 150 -144 14 -31
26 -60 26 -65 0 -6 -113 -10 -301 -10 l-301 0 6 33 c15 76 95 165 172 192 62
22 196 19 248 -6z"/>
<path d="M2570 2267 c-73 -21 -160 -69 -197 -111 -43 -47 -56 -38 -52 33 5 62
9 61 -176 61 l-140 0 0 -848 0 -847 156 -3 156 -2 6 196 c4 109 7 251 7 318
l0 120 38 -35 c108 -102 170 -124 342 -123 l125 0 97 46 c186 88 314 248 348
435 16 89 8 294 -13 344 -8 19 -23 54 -33 79 -24 57 -82 146 -123 188 -44 45
-141 107 -210 133 -70 27 -260 36 -331 16z m208 -303 c62 -31 126 -100 158
-171 107 -239 -67 -508 -317 -491 -69 5 -152 39 -198 81 -69 64 -107 173 -98
287 16 208 127 317 323 319 67 1 88 -3 132 -25z"/>
<path d="M8685 2273 c-11 -2 -44 -13 -73 -24 -220 -80 -347 -225 -403 -460
-23 -97 -23 -126 -4 -249 33 -199 150 -354 341 -449 93 -46 167 -61 301 -61
180 0 291 37 423 141 66 52 137 148 119 160 -8 5 -17 9 -21 9 -3 0 -44 17 -90
38 -122 57 -116 56 -154 23 -164 -144 -383 -143 -522 3 -47 49 -72 88 -86 132
l-6 20 457 2 c252 0 461 1 466 1 4 1 7 54 7 118 0 184 -45 300 -162 420 -69
71 -141 116 -250 153 -74 26 -95 29 -203 28 -66 0 -129 -2 -140 -5z m270 -277
c70 -30 165 -146 165 -203 l0 -23 -301 0 -300 0 6 23 c24 82 100 174 165 199
75 29 199 31 265 4z"/>
<path d="M6660 2263 c-50 -8 -126 -37 -163 -61 -37 -24 -117 -116 -117 -133 0
-5 -4 -9 -10 -9 -6 0 -8 35 -5 96 l5 97 -76 -7 c-43 -3 -117 -6 -166 -6 l-88
0 0 -600 0 -601 164 2 165 1 1 330 c0 198 5 350 12 381 9 42 21 61 67 107 47
48 66 59 121 74 36 10 97 20 135 24 l70 7 3 153 3 152 -48 -1 c-27 -1 -59 -4
-73 -6z"/>
<path d="M4303 1648 c3 -332 6 -604 6 -606 1 -1 72 -1 159 0 86 2 156 6 155
11 -2 4 -3 275 -3 602 l0 595 -161 0 -161 0 5 -602z"/>
</g>
</svg>
